<?xml version="1.0" encoding="UTF-8"?>
<!-- Created with Inkscape (http://www.inkscape.org/) -->
<svg width="1080" height="1080" version="1.1" viewBox="0 0 285.75 285.75" xmlns="http://www.w3.org/2000/svg">
 <g stroke="#ffaf41" stroke-linecap="square">
  <circle transform="matrix(.70243 .71176 -.70243 .71176 0 0)" cx="202.08" cy="-51.401" r="93.972" fill="none" stroke-width="12.432" style="paint-order:markers stroke fill"/>
  <path d="m87.07 86.364a93.35 94.59 0 0 0-45.402 25.303 93.35 94.59 0 0 0 0 133.77 93.35 94.59 0 0 0 132.02 0 93.35 94.59 0 0 0 25.039-46.021 93.35 94.59 0 0 1-3.3176 0.76766 93.35 94.59 0 0 1-6.903 1.0538 93.35 94.59 0 0 1-6.961 0.52813 93.35 94.59 0 0 1-6.9808 0 93.35 94.59 0 0 1-6.961-0.52813 93.35 94.59 0 0 1-6.903-1.0538 93.35 94.59 0 0 1-6.8059-1.5744 93.35 94.59 0 0 1-6.6706-2.0848 93.35 94.59 0 0 1-6.4988-2.5842 93.35 94.59 0 0 1-6.2893-3.0694 93.35 94.59 0 0 1-6.0457-3.5364 93.35 94.59 0 0 1-5.7682-3.9852 93.35 94.59 0 0 1-5.4578-4.4106 93.35 94.59 0 0 1-5.1172-4.8109 93.35 94.59 0 0 1-4.7478-5.1852 93.35 94.59 0 0 1-4.3528-5.5303 93.35 94.59 0 0 1-3.933-5.8448 93.35 94.59 0 0 1-3.49-6.126 93.35 94.59 0 0 1-3.0292-6.3729 93.35 94.59 0 0 1-2.5503-6.5851 93.35 94.59 0 0 1-2.0575-6.7592 93.35 94.59 0 0 1-1.5538-6.8963 93.35 94.59 0 0 1-1.0399-6.9947 93.35 94.59 0 0 1-0.52121-7.0534 93.35 94.59 0 0 1 0-7.0735 93.35 94.59 0 0 1 0.52121-7.0534 93.35 94.59 0 0 1 1.0399-6.9947 93.35 94.59 0 0 1 0.74256-3.2942z" fill="#ffaf41" stroke-width="12.431" style="paint-order:markers stroke fill"/>
  <path d="m87.279 85.694c31.071-6.8864 63.463 2.732 85.953 25.521 22.775 23.077 32.2 56.421 24.937 88.215m-102.64-128.85c32.993-16.774 74.036-10.622 101.31 17.013 27.459 27.823 33.495 69.765 16.625 103.4m-109.68-135.53c16.783-12.946 37.877-19.423 59.405-17.926 21.521 1.4957 41.889 10.86 57.258 26.433 15.415 15.619 24.675 36.325 26.139 58.203 1.4641 21.884-4.9737 43.328-17.826 60.383m-116.73-142.21c17.506-17.739 41.251-27.705 66.009-27.704 24.758 6.31e-4 48.503 9.9658 66.009 27.704 17.506 17.739 27.342 41.799 27.341 66.885 0 25.086-9.8352 49.147-27.341 66.885" fill="none" stroke-width="12.431" style="paint-order:markers stroke fill"/>
 </g>
</svg>
